GIL02_slow1_RRA_states
nRows=6
nColumns=47

# SIMM Motion File Header:
name GIL02_slow1_RRA_states
datacolumns 47
datarows 6
otherdata 1
range 1.04332999999999590000 1.04582999999999560000
endheader
time	pelvis_tx	pelvis_ty	pelvis_tz	pelvis_tilt	pelvis_list	pelvis_rotation	hip_flexion_r	hip_adduction_r	hip_rotation_r	knee_angle_r	ankle_angle_r	subtalar_angle_r	mtp_angle_r	hip_flexion_l	hip_adduction_l	hip_rotation_l	knee_angle_l	ankle_angle_l	subtalar_angle_l	mtp_angle_l	lumbar_extension	lumbar_bending	lumbar_rotation	pelvis_tx_u	pelvis_ty_u	pelvis_tz_u	pelvis_tilt_u	pelvis_list_u	pelvis_rotation_u	hip_flexion_r_u	hip_adduction_r_u	hip_rotation_r_u	knee_angle_r_u	ankle_angle_r_u	subtalar_angle_r_u	mtp_angle_r_u	hip_flexion_l_u	hip_adduction_l_u	hip_rotation_l_u	knee_angle_l_u	ankle_angle_l_u	subtalar_angle_l_u	mtp_angle_l_u	lumbar_extension_u	lumbar_bending_u	lumbar_rotation_u
      1.04332999999999590000	      1.32578551580143960000	      0.95448762462670445000	     -0.23088788446293701000	      1.03265688171482010000	      5.13580838391451340000	     -4.60975256609875220000	     18.13632322078396100000	     -5.74202258547941110000	     14.57680657646343100000	    -52.61677473574277300000	     -2.57116838434233810000	     -0.00000000000036986892	      0.00000000000000606552	      0.00389201563800343820	      9.66178160594438750000	      5.99512578414078320000	     -1.31207692904444740000	      3.75966169088187780000	      0.00000000000007956986	     -0.00000000000005974683	     -4.30596308225856910000	     -4.72347681453593720000	      3.82360204766640210000	      0.55586854574243416000	      0.00589459569800556810	     -0.06835785530455899800	      1.06470985123171720000	    -26.55679303580267700000	     13.07988615283551300000	    101.60018591405283000000	     36.66192957152505700000	    -23.23188990723823000000	     84.54784807667778100000	     54.88663491484605600000	     -0.00000000000088359512	     -0.00000000000023383350	    -44.27132712964819900000	    -17.70582875897000000000	      2.74738244835576320000	     -4.92427143529319620000	     43.47711168157488300000	      0.00000000000042883569	     -0.00000000000027987832	    -20.75571008494380000000	     24.24654199913382500000	     -0.27937097307111008000
      1.04382999999999580000	      1.32606336724508700000	      0.95449043635427966000	     -0.23092202430589132000	      1.03317433396587570000	      5.12253828936101920000	     -4.60318529017578100000	     18.18709949511565000000	     -5.72373345873782300000	     14.56501644008811300000	    -52.57435628190977200000	     -2.54365717183127280000	     -0.00000000000037031076	      0.00000000000000594870	     -0.01819216881386374200	      9.65293535658164710000	      5.99642558362558110000	     -1.31458387526424030000	      3.78137504949703680000	      0.00000000000007978635	     -0.00000000000005988526	     -4.31633419487489610000	     -4.71137260879962220000	      3.82342935517552270000	      0.55553820066434711000	      0.00535243887633362740	     -0.06820255916738794700	      1.00520620252939730000	    -26.52357466503454500000	     13.18919841923774100000	    101.50446501191270000000	     36.49441270139668300000	    -23.92816027371345900000	     85.12607846061112600000	     55.15794725753210800000	     -0.00000000000088311312	     -0.00000000000023409570	    -44.06569645188648100000	    -17.67902677424604400000	      2.45284407266049210000	     -5.10330051780586750000	     43.37634395106763200000	      0.00000000000043550736	     -0.00000000000025800514	    -20.72873476707971100000	     24.17059844305299900000	     -0.41192983893298640000
      1.04432999999999580000	      1.32634105497122250000	      0.95449297719543313000	     -0.23095608806640103000	      1.03366219495667840000	      5.10928482627775440000	     -4.59656338581973320000	     18.23782724055553200000	     -5.70552834457638180000	     14.55287891185566800000	    -52.53164854747900800000	     -2.51601070452942200000	     -0.00000000000037075247	      0.00000000000000583164	     -0.04017396361361170300	      9.64410272689575440000	      5.99757965128710340000	     -1.31718002028077640000	      3.80303797002354970000	      0.00000000000008000534	     -0.00000000000006001683	     -4.32669181125711950000	     -4.69930590618097900000	      3.82318958528804930000	      0.55521367071621996000	      0.00481106180924795270	     -0.06805352899746579300	      0.94634486472828672000	    -26.49025419608819800000	     13.29840170308689400000	    101.40607278105178000000	     36.32586528755347600000	    -24.62145577408729500000	     85.70496694833534000000	     55.42765460138181800000	     -0.00000000000088360744	     -0.00000000000023439697	    -43.86176284665418700000	    -17.65133848926008800000	      2.16444441808653830000	     -5.28107361851868970000	     43.27518708750389500000	      0.00000000000043667650	     -0.00000000000029110535	    -20.70172487478330600000	     24.09651448855550300000	     -0.54768376953494924000
      1.04482999999999570000	      1.32661858189737330000	      0.95449524756037729000	     -0.23099007887767836000	      1.03412078726445310000	      5.09604804984827100000	     -4.58988690742885730000	     18.28850511674576400000	     -5.68740776149022940000	     14.54039548665135100000	    -52.48865119096372200000	     -2.48822983956438600000	     -0.00000000000037119436	      0.00000000000000571432	     -0.06205422085766994200	      9.63528416124711560000	      5.99859105791817800000	     -1.31986473692910030000	      3.82465018101511140000	      0.00000000000008022421	     -0.00000000000006016692	     -4.33703591314721050000	     -4.68727578289999510000	      3.82288115247557010000	      0.55489503059771617000	      0.00427055112378158830	     -0.06791075576511235200	      0.88813421396097769000	    -26.45684570821256900000	     13.40749112275211100000	    101.30497373761332000000	     36.15630987979562900000	    -25.31173641462274700000	     86.28459871230499800000	     55.69542761029797600000	     -0.00000000000088462824	     -0.00000000000023509521	    -43.65956470455878200000	    -17.62279134023947000000	      1.88222428355032110000	     -5.45757469522802370000	     43.17369649811222100000	      0.00000000000045152832	     -0.00000000000032826566	    -20.67467541606669800000	     24.02429913783505800000	     -0.68655111615895281000
      1.04532999999999570000	      1.32689595099589460000	      0.95449724790516788000	     -0.23102399986347683000	      1.03455043903279730000	      5.08282799272838750000	     -4.58315591447702180000	     18.33913175715004200000	     -5.66937219877846670000	     14.52756768444292800000	    -52.44536381057984900000	     -2.46031565411654190000	     -0.00000000000037163685	      0.00000000000000559706	     -0.08383382405629258300	      9.62648007400951400000	      5.99946291182305650000	     -1.32263737988117590000	      3.84621161804168520000	      0.00000000000008044930	     -0.00000000000006032836	     -4.34736647928237740000	     -4.67528129392175720000	      3.82250252887975830000	      0.55458235533050981000	      0.00373099274317813130	     -0.06777423056911036100	      0.83058280939922191000	    -26.42336433869511900000	     13.51646172131610200000	    101.20113195561986000000	     35.98577022936819200000	    -25.99896218114914200000	     86.86505888050747600000	     55.96093710808738600000	     -0.00000000000088520264	     -0.00000000000023423326	    -43.45914126111139800000	    -17.59341352262869800000	      1.60622192803020640000	     -5.63278491239218940000	     43.07191474384807600000	      0.00000000000044252238	     -0.00000000000030492828	    -20.64758164918508500000	     23.95396264067920500000	     -0.82845003609919310000
      1.04582999999999560000	      1.32717316525891320000	      0.95449897872560518000	     -0.23105785414723654000	      1.03495148129599170000	      5.06962469546413530000	     -4.57637046633912090000	     18.38970578583140600000	     -5.65142215163680990000	     14.51439704018038100000	    -52.40178598009524800000	     -2.43226933294460550000	     -0.00000000000037207947	      0.00000000000000547975	     -0.10551366408872158000	      9.61769088169001130000	      6.00019832212191330000	     -1.32549730418665160000	      3.86772205658092540000	      0.00000000000008067507	     -0.00000000000006048837	     -4.35768348657225250000	     -4.66332150602814900000	      3.82205221106562340000	      0.55427571771498607000	      0.00319246992054639680	     -0.06764393949385941200	      0.77369882016030422000	    -26.38982332285169400000	     13.62530840476375400000	    101.09451305303314000000	     35.81426857104600000000	    -26.68309285875678300000	     87.44643026523908700000	     56.22386335322315900000	     -0.00000000000088551149	     -0.00000000000023516289	    -43.26052991348756600000	    -17.56323197797436500000	      1.33647348668215150000	     -5.80668890108031820000	     42.96989760325828900000	      0.00000000000046062415	     -0.00000000000031090986	    -20.62043858623895100000	     23.88551166292423700000	     -0.97329702658319051000
